<svg width="32" height="32" viewBox="0 0 32 32" fill="none" xmlns="http://www.w3.org/2000/svg">
  <rect width="32" height="32" rx="8" fill="url(#gradient)"/>
  <!-- Shield icon -->
  <path d="M16 4C16 4 10.5 6 10.5 12C10.5 18 16 28 16 28C16 28 21.5 18 21.5 12C21.5 6 16 4 16 4Z" fill="white" opacity="0.95"/>
  <!-- Inner shield detail -->
  <path d="M16 7C16 7 12.5 8.5 12.5 12.5C12.5 16.5 16 23 16 23C16 23 19.5 16.5 19.5 12.5C19.5 8.5 16 7 16 7Z" fill="url(#innerGradient)" opacity="0.3"/>
  <!-- Center dot for EHS focus -->
  <circle cx="16" cy="13" r="2" fill="white" opacity="0.9"/>
  <defs>
    <linearGradient id="gradient" x1="0" y1="0" x2="32" y2="32" gradientUnits="userSpaceOnUse">
      <stop offset="0%" stop-color="#4f46e5"/>
      <stop offset="100%" stop-color="#6366f1"/>
    </linearGradient>
    <linearGradient id="innerGradient" x1="12.5" y1="7" x2="19.5" y2="23" gradientUnits="userSpaceOnUse">
      <stop offset="0%" stop-color="#ffffff"/>
      <stop offset="100%" stop-color="#e2e8f0"/>
    </linearGradient>
  </defs>
</svg>