<svg width="192" height="192" viewBox="0 0 192 192" fill="none" xmlns="http://www.w3.org/2000/svg">
  <rect width="192" height="192" rx="32" fill="#3B82F6"/>
  <g transform="translate(36, 36)">
    <!-- Shield icon representing safety -->
    <path d="M60 20L60 10C60 7.79086 58.2091 6 56 6L24 6C21.7909 6 20 7.79086 20 10L20 20C20 50 20 90 40 110C50 120 50 120 60 110C80 90 80 50 80 20Z" fill="white"/>
    <!-- Safety cross in center -->
    <rect x="38" y="30" width="4" height="40" fill="#3B82F6" rx="2"/>
    <rect x="28" y="48" width="24" height="4" fill="#3B82F6" rx="2"/>
    <!-- Small safety dots -->
    <circle cx="35" cy="25" r="2" fill="#EF4444"/>
    <circle cx="45" cy="25" r="2" fill="#10B981"/>
    <circle cx="35" cy="75" r="2" fill="#F59E0B"/>
    <circle cx="45" cy="75" r="2" fill="#8B5CF6"/>
  </g>
  <!-- Company name -->
  <text x="96" y="145" font-family="Inter, sans-serif" font-size="16" font-weight="600" fill="white" text-anchor="middle">KYNTRI</text>
  <text x="96" y="165" font-family="Inter, sans-serif" font-size="12" font-weight="400" fill="#BFDBFE" text-anchor="middle">EHS SAFETY</text>
</svg>